<svg id="Layer_1" data-name="Layer 1" xmlns="http://www.w3.org/2000/svg" viewBox="0 0 50 50"><defs><style>.cls-1{fill:#42ce9f}.cls-2{fill:#fff}</style></defs><title>Artboard 1 copy 18</title><rect class="cls-1" width="50" height="50" rx="10.2" ry="10.2"/><path class="cls-2" d="M18.76 37a2.41 2.41 0 0 1-1.76-.71c-.71-.72-.72-1.4-.74-2.64v-2.52-7.52c0-5.45.06-10.88.06-10.88h4.82v3.91c5.71.66 10 3.13 11.76 6.9a8.31 8.31 0 0 1-1.28 9C28.24 36.67 23.41 37 18.76 37zm2.38-15.48v10.6c3.61-.2 5.4-.93 6.82-2.63a3.5 3.5 0 0 0 .61-3.88c-.82-1.7-3.16-3.49-7.44-4.09z"/></svg>